<svg width="512" height="512" viewBox="0 0 32 32" fill="none" xmlns="http://www.w3.org/2000/svg"><path fill-rule="evenodd" clip-rule="evenodd" d="M512 256c0 40.87-9.577 79.503-26.61 113.778H272c39.403-53.644 80-118.604 80-184.889 0-85.3-64.984-157.108-153.348-178.44C217.089 2.228 236.284 0 256 0c141.385 0 256 114.615 256 256Zm-224-71.111c0-70.693-64.471-128-144-128C37.59 56.889 0 177.879 0 256c0 141.385 114.615 256 256 256 75.819 0 143.939-32.96 190.814-85.333H144c5.629-6.38 11.524-12.955 17.579-19.709C217.85 344.195 288 265.952 288 184.889Z" fill="#7859CF"/></svg>